# xmcd
#
# Track frame offsets:
#	150
#	16078
#	31684
#	46451
#	59080
#	74781
#	93685
#	107876
#	122746
#	135577
#
# Disc length: 1989 seconds
#
# Revision: 0
# Processed by: cddbd v1.5PL3 Copyright (c) Steve Scherf et al.
# Submitted via: dBpowerAMP V4.0
#
DISCID=9007c30a
DTITLE=The Singing Cookes - Sweet Tomorrow
DYEAR=1900
DGENRE=Gospel
TTITLE0=It Wasn't The Nails
TTITLE1=The Cross Wins Again
TTITLE2=I've Been Touched
TTITLE3=Sweet Tomorrow
TTITLE4=Have A Happy Mother's Day
TTITLE5=Soldier And The Blind Boy
TTITLE6=A Place I've Never Been
TTITLE7=The Hilltops Of Clory
TTITLE8=No City Like Heaven
TTITLE9=Heave, Sweet Heaven, My Home
EXTD=Gospel
EXTT0=
EXTT1=
EXTT2=
EXTT3=
EXTT4=
EXTT5=
EXTT6=
EXTT7=
EXTT8=
EXTT9=
PLAYORDER=
